<?xml version="1.0" encoding="UTF-8" standalone="no"?>
<!-- Created with Inkscape (http://www.inkscape.org/) -->

<svg
   width="71.299416mm"
   height="56.862247mm"
   viewBox="0 0 71.299415 56.862247"
   version="1.1"
   id="svg13248"
   inkscape:version="1.2.2 (b0a8486, 2022-12-01)"
   sodipodi:docname="logo.svg"
   inkscape:export-filename="edol_logo.png"
   inkscape:export-xdpi="300"
   inkscape:export-ydpi="300"
   xmlns:inkscape="http://www.inkscape.org/namespaces/inkscape"
   xmlns:sodipodi="http://sodipodi.sourceforge.net/DTD/sodipodi-0.dtd"
   xmlns:xlink="http://www.w3.org/1999/xlink"
   xmlns="http://www.w3.org/2000/svg"
   xmlns:svg="http://www.w3.org/2000/svg">
  <sodipodi:namedview
     id="namedview13250"
     pagecolor="#ffffff"
     bordercolor="#666666"
     borderopacity="1.0"
     inkscape:showpageshadow="2"
     inkscape:pageopacity="0.0"
     inkscape:pagecheckerboard="0"
     inkscape:deskcolor="#d1d1d1"
     inkscape:document-units="mm"
     showgrid="false"
     inkscape:zoom="1.9816454"
     inkscape:cx="142.05367"
     inkscape:cy="140.28746"
     inkscape:current-layer="layer1" />
  <defs
     id="defs13245">
    <radialGradient
       inkscape:collect="always"
       xlink:href="#linearGradient8830"
       id="radialGradient8744"
       gradientUnits="userSpaceOnUse"
       gradientTransform="matrix(0.85336386,0,0,0.85336386,96.010582,78.621228)"
       cx="130.94467"
       cy="31.53182"
       fx="130.94467"
       fy="31.53182"
       r="36.594208" />
    <linearGradient
       inkscape:collect="always"
       id="linearGradient8830">
      <stop
         style="stop-color:#1f00ff;stop-opacity:1;"
         offset="0.36921784"
         id="stop8826" />
      <stop
         style="stop-color:#05f5ff;stop-opacity:1;"
         offset="1"
         id="stop8828" />
    </linearGradient>
    <radialGradient
       inkscape:collect="always"
       xlink:href="#linearGradient12034"
       id="radialGradient8742"
       gradientUnits="userSpaceOnUse"
       gradientTransform="matrix(2.1078011,0,0,2.0282614,103.2911,-61.888296)"
       cx="42.401257"
       cy="55.163162"
       fx="42.401257"
       fy="55.163162"
       r="3.6624413" />
    <linearGradient
       inkscape:collect="always"
       id="linearGradient12034">
      <stop
         style="stop-color:#ffffff;stop-opacity:0.00403227;"
         offset="0.49326834"
         id="stop12026" />
      <stop
         style="stop-color:#00aeff;stop-opacity:1;"
         offset="0.49326834"
         id="stop12028" />
      <stop
         style="stop-color:#00aeff;stop-opacity:1;"
         offset="0.63435233"
         id="stop12030" />
      <stop
         style="stop-color:#00aeff;stop-opacity:0;"
         offset="1"
         id="stop12032" />
    </linearGradient>
    <clipPath
       clipPathUnits="userSpaceOnUse"
       id="clipPath20393">
      <g
         id="g20467">
        <path
           id="path20395"
           style="opacity:0.78955;stroke-width:0.565;stroke-linecap:round;stop-color:#000000"
           d="m 221.38043,80.666084 a 3.6624413,3.6624413 0 0 1 -3.66244,3.662442 3.6624413,3.6624413 0 0 1 -3.66244,-3.662442 3.6624413,3.6624413 0 0 1 3.66244,-3.662441 3.6624413,3.6624413 0 0 1 3.66244,3.662441 z" />
        <path
           id="path20397"
           style="opacity:0.78955;stroke-width:0.565;stroke-linecap:round;stop-color:#000000"
           d="m 200.46298,80.7416 a 3.6624413,3.6624413 0 0 1 -3.66244,3.662441 3.6624413,3.6624413 0 0 1 -3.66244,-3.662441 3.6624413,3.6624413 0 0 1 3.66244,-3.662441 3.6624413,3.6624413 0 0 1 3.66244,3.662441 z" />
        <path
           id="path20399"
           style="opacity:0.78955;stroke-width:0.565;stroke-linecap:round;stop-color:#000000"
           d="m 186.41732,95.08931 a 3.6624413,3.6624413 0 0 1 -3.66244,3.662441 3.6624413,3.6624413 0 0 1 -3.66244,-3.662441 3.6624413,3.6624413 0 0 1 3.66244,-3.662442 3.6624413,3.6624413 0 0 1 3.66244,3.662442 z" />
        <path
           id="path20401"
           style="opacity:0.78955;stroke-width:0.565;stroke-linecap:round;stop-color:#000000"
           d="m 186.34181,115.78021 a 3.6624413,3.6624413 0 0 1 -3.66244,3.66244 3.6624413,3.6624413 0 0 1 -3.66244,-3.66244 3.6624413,3.6624413 0 0 1 3.66244,-3.66244 3.6624413,3.6624413 0 0 1 3.66244,3.66244 z" />
        <path
           id="path20403"
           style="opacity:0.78955;stroke-width:0.565;stroke-linecap:round;stop-color:#000000"
           d="m 200.99157,130.12793 a 3.6624413,3.6624413 0 0 1 -3.66244,3.66244 3.6624413,3.6624413 0 0 1 -3.66244,-3.66244 3.6624413,3.6624413 0 0 1 3.66244,-3.66244 3.6624413,3.6624413 0 0 1 3.66244,3.66244 z" />
        <path
           id="path20405"
           style="opacity:0.78955;stroke-width:0.565;stroke-linecap:round;stop-color:#000000"
           d="m 221.60698,130.20345 a 3.6624413,3.6624413 0 0 1 -3.66245,3.66244 3.6624413,3.6624413 0 0 1 -3.66244,-3.66244 3.6624413,3.6624413 0 0 1 3.66244,-3.66245 3.6624413,3.6624413 0 0 1 3.66245,3.66245 z" />
        <path
           id="path20407"
           style="opacity:0.78955;stroke-width:0.500928;stroke-linecap:round;stop-color:#000000"
           d="m 226.74194,121.40603 a 3.2471128,3.2471128 0 0 1 -3.24711,3.24711 3.2471128,3.2471128 0 0 1 -3.24712,-3.24711 3.2471128,3.2471128 0 0 1 3.24712,-3.24711 3.2471128,3.2471128 0 0 1 3.24711,3.24711 z" />
        <path
           id="path20409"
           style="opacity:0.78955;stroke-width:0.500928;stroke-linecap:round;stop-color:#000000"
           d="m 210.73292,127.90025 a 3.2471128,3.2471128 0 0 1 -3.24711,3.24712 3.2471128,3.2471128 0 0 1 -3.24711,-3.24712 3.2471128,3.2471128 0 0 1 3.24711,-3.24711 3.2471128,3.2471128 0 0 1 3.24711,3.24711 z" />
        <path
           id="path20411"
           style="opacity:0.78955;stroke-width:0.500928;stroke-linecap:round;stop-color:#000000"
           d="m 194.7994,121.17948 a 3.2471128,3.2471128 0 0 1 -3.24711,3.24711 3.2471128,3.2471128 0 0 1 -3.24711,-3.24711 3.2471128,3.2471128 0 0 1 3.24711,-3.24711 3.2471128,3.2471128 0 0 1 3.24711,3.24711 z" />
        <path
           id="path20413"
           style="opacity:0.78955;stroke-width:0.500928;stroke-linecap:round;stop-color:#000000"
           d="m 194.72389,89.539009 a 3.2471128,3.2471128 0 0 1 -3.24711,3.247113 3.2471128,3.2471128 0 0 1 -3.24712,-3.247113 3.2471128,3.2471128 0 0 1 3.24712,-3.247113 3.2471128,3.2471128 0 0 1 3.24711,3.247113 z" />
        <path
           id="path20415"
           style="opacity:0.78955;stroke-width:0.500928;stroke-linecap:round;stop-color:#000000"
           d="m 210.58189,82.969269 a 3.2471128,3.2471128 0 0 1 -3.24711,3.247113 3.2471128,3.2471128 0 0 1 -3.24711,-3.247113 3.2471128,3.2471128 0 0 1 3.24711,-3.247113 3.2471128,3.2471128 0 0 1 3.24711,3.247113 z" />
        <path
           id="path20417"
           style="opacity:0.78955;stroke-width:0.500928;stroke-linecap:round;stop-color:#000000"
           d="m 226.43988,89.539009 a 3.2471128,3.2471128 0 0 1 -3.24712,3.247113 3.2471128,3.2471128 0 0 1 -3.24711,-3.247113 3.2471128,3.2471128 0 0 1 3.24711,-3.247113 3.2471128,3.2471128 0 0 1 3.24712,3.247113 z" />
        <path
           id="path20419"
           style="opacity:0.78955;stroke-width:0.401907;stroke-linecap:round;stop-color:#000000"
           d="m 217.15163,87.613396 a 2.6052415,2.6052415 0 0 1 -2.60524,2.605241 2.6052415,2.6052415 0 0 1 -2.60524,-2.605241 2.6052415,2.6052415 0 0 1 2.60524,-2.605242 2.6052415,2.6052415 0 0 1 2.60524,2.605242 z" />
        <path
           id="path20421"
           style="opacity:0.78955;stroke-width:0.401907;stroke-linecap:round;stop-color:#000000"
           d="m 202.57738,87.76442 a 2.6052415,2.6052415 0 0 1 -2.60524,2.605241 2.6052415,2.6052415 0 0 1 -2.60524,-2.605241 2.6052415,2.6052415 0 0 1 2.60524,-2.605242 2.6052415,2.6052415 0 0 1 2.60524,2.605242 z" />
        <path
           id="path20423"
           style="opacity:0.78955;stroke-width:0.401907;stroke-linecap:round;stop-color:#000000"
           d="m 192.45847,98.034355 a 2.6052415,2.6052415 0 0 1 -2.60524,2.605245 2.6052415,2.6052415 0 0 1 -2.60525,-2.605245 2.6052415,2.6052415 0 0 1 2.60525,-2.605241 2.6052415,2.6052415 0 0 1 2.60524,2.605241 z" />
        <path
           id="path20425"
           style="opacity:0.78955;stroke-width:0.401907;stroke-linecap:round;stop-color:#000000"
           d="m 192.6095,112.53309 a 2.6052415,2.6052415 0 0 1 -2.60524,2.60524 2.6052415,2.6052415 0 0 1 -2.60524,-2.60524 2.6052415,2.6052415 0 0 1 2.60524,-2.60524 2.6052415,2.6052415 0 0 1 2.60524,2.60524 z" />
        <path
           id="path20427"
           style="opacity:0.78955;stroke-width:0.401907;stroke-linecap:round;stop-color:#000000"
           d="m 202.65289,122.80303 a 2.6052415,2.6052415 0 0 1 -2.60524,2.60524 2.6052415,2.6052415 0 0 1 -2.60524,-2.60524 2.6052415,2.6052415 0 0 1 2.60524,-2.60524 2.6052415,2.6052415 0 0 1 2.60524,2.60524 z" />
        <path
           id="path20429"
           style="opacity:0.78955;stroke-width:0.401907;stroke-linecap:round;stop-color:#000000"
           d="m 217.37818,122.80303 a 2.6052415,2.6052415 0 0 1 -2.60525,2.60524 2.6052415,2.6052415 0 0 1 -2.60524,-2.60524 2.6052415,2.6052415 0 0 1 2.60524,-2.60524 2.6052415,2.6052415 0 0 1 2.60525,2.60524 z" />
        <path
           id="path20431"
           style="opacity:0.78955;stroke-width:0.30283;stroke-linecap:round;stop-color:#000000"
           d="m 220.09668,115.85572 a 2.0011275,1.9256133 0 0 1 -2.00113,1.92561 2.0011275,1.9256133 0 0 1 -2.00113,-1.92561 2.0011275,1.9256133 0 0 1 2.00113,-1.92561 2.0011275,1.9256133 0 0 1 2.00113,1.92561 z" />
        <path
           id="path20433"
           style="opacity:0.78955;stroke-width:0.30283;stroke-linecap:round;stop-color:#000000"
           d="m 209.44917,120.31106 a 2.0011275,1.9256133 0 0 1 -2.00113,1.92561 2.0011275,1.9256133 0 0 1 -2.00112,-1.92561 2.0011275,1.9256133 0 0 1 2.00112,-1.92562 2.0011275,1.9256133 0 0 1 2.00113,1.92562 z" />
        <path
           id="path20435"
           style="opacity:0.78955;stroke-width:0.30283;stroke-linecap:round;stop-color:#000000"
           d="m 198.9527,115.85572 a 2.0011275,1.9256133 0 0 1 -2.00113,1.92561 2.0011275,1.9256133 0 0 1 -2.00113,-1.92561 2.0011275,1.9256133 0 0 1 2.00113,-1.92561 2.0011275,1.9256133 0 0 1 2.00113,1.92561 z" />
        <path
           id="path20437"
           style="opacity:0.78955;stroke-width:0.30283;stroke-linecap:round;stop-color:#000000"
           d="m 198.87718,94.485184 a 2.0011275,1.9256133 0 0 1 -2.00113,1.925613 2.0011275,1.9256133 0 0 1 -2.00112,-1.925613 2.0011275,1.9256133 0 0 1 2.00112,-1.925614 2.0011275,1.9256133 0 0 1 2.00113,1.925614 z" />
        <path
           id="path20439"
           style="opacity:0.78955;stroke-width:0.30283;stroke-linecap:round;stop-color:#000000"
           d="m 209.37366,90.18087 a 2.0011275,1.9256133 0 0 1 -2.00113,1.925613 2.0011275,1.9256133 0 0 1 -2.00113,-1.925613 2.0011275,1.9256133 0 0 1 2.00113,-1.925613 2.0011275,1.9256133 0 0 1 2.00113,1.925613 z" />
        <path
           id="path20441"
           style="opacity:0.78955;stroke-width:0.30283;stroke-linecap:round;stop-color:#000000"
           d="m 220.09668,94.560699 a 2.0011275,1.9256133 0 0 1 -2.00113,1.925614 2.0011275,1.9256133 0 0 1 -2.00113,-1.925614 2.0011275,1.9256133 0 0 1 2.00113,-1.925613 2.0011275,1.9256133 0 0 1 2.00113,1.925613 z" />
        <path
           id="path20443"
           style="opacity:0.78955;stroke-width:0.219701;stroke-linecap:round;stop-color:#000000"
           d="m 213.78754,93.125931 a 1.4517983,1.3970135 0 0 1 -1.4518,1.397013 1.4517983,1.3970135 0 0 1 -1.4518,-1.397013 1.4517983,1.3970135 0 0 1 1.4518,-1.397014 1.4517983,1.3970135 0 0 1 1.4518,1.397014 z" />
        <path
           id="path20445"
           style="opacity:0.78955;stroke-width:0.219701;stroke-linecap:round;stop-color:#000000"
           d="m 203.89517,93.201447 a 1.4517983,1.3970135 0 0 1 -1.4518,1.397013 1.4517983,1.3970135 0 0 1 -1.45179,-1.397013 1.4517983,1.3970135 0 0 1 1.45179,-1.397014 1.4517983,1.3970135 0 0 1 1.4518,1.397014 z" />
        <path
           id="path20447"
           style="opacity:0.78955;stroke-width:0.219701;stroke-linecap:round;stop-color:#000000"
           d="m 196.94786,100.29979 a 1.4517983,1.3970135 0 0 1 -1.4518,1.39701 1.4517983,1.3970135 0 0 1 -1.4518,-1.39701 1.4517983,1.3970135 0 0 1 1.4518,-1.397014 1.4517983,1.3970135 0 0 1 1.4518,1.397014 z" />
        <path
           id="path20449"
           style="opacity:0.78955;stroke-width:0.219701;stroke-linecap:round;stop-color:#000000"
           d="m 196.94786,110.26767 a 1.4517983,1.3970135 0 0 1 -1.4518,1.39701 1.4517983,1.3970135 0 0 1 -1.4518,-1.39701 1.4517983,1.3970135 0 0 1 1.4518,-1.39701 1.4517983,1.3970135 0 0 1 1.4518,1.39701 z" />
        <path
           id="path20451"
           style="opacity:0.78955;stroke-width:0.219701;stroke-linecap:round;stop-color:#000000"
           d="m 203.97069,117.13947 a 1.4517983,1.3970135 0 0 1 -1.4518,1.39702 1.4517983,1.3970135 0 0 1 -1.4518,-1.39702 1.4517983,1.3970135 0 0 1 1.4518,-1.39701 1.4517983,1.3970135 0 0 1 1.4518,1.39701 z" />
        <path
           id="path20453"
           style="opacity:0.78955;stroke-width:0.219701;stroke-linecap:round;stop-color:#000000"
           d="m 213.86305,117.06395 a 1.4517983,1.3970135 0 0 1 -1.4518,1.39701 1.4517983,1.3970135 0 0 1 -1.45179,-1.39701 1.4517983,1.3970135 0 0 1 1.45179,-1.39701 1.4517983,1.3970135 0 0 1 1.4518,1.39701 z" />
        <path
           id="path20455"
           style="opacity:0.78955;stroke-width:0.16626;stroke-linecap:round;stop-color:#000000"
           d="m 215.19566,111.96674 a 1.0986582,1.0571994 0 0 1 -1.09866,1.0572 1.0986582,1.0571994 0 0 1 -1.09866,-1.0572 1.0986582,1.0571994 0 0 1 1.09866,-1.0572 1.0986582,1.0571994 0 0 1 1.09866,1.0572 z" />
        <path
           id="path20457"
           style="opacity:0.78955;stroke-width:0.16626;stroke-linecap:round;stop-color:#000000"
           d="m 208.55041,114.68525 a 1.0986582,1.0571994 0 0 1 -1.09866,1.0572 1.0986582,1.0571994 0 0 1 -1.09866,-1.0572 1.0986582,1.0571994 0 0 1 1.09866,-1.0572 1.0986582,1.0571994 0 0 1 1.09866,1.0572 z" />
        <path
           id="path20459"
           style="opacity:0.78955;stroke-width:0.16626;stroke-linecap:round;stop-color:#000000"
           d="m 201.82963,111.96674 a 1.0986582,1.0571994 0 0 1 -1.09866,1.0572 1.0986582,1.0571994 0 0 1 -1.09866,-1.0572 1.0986582,1.0571994 0 0 1 1.09866,-1.0572 1.0986582,1.0571994 0 0 1 1.09866,1.0572 z" />
        <path
           id="path20461"
           style="opacity:0.78955;stroke-width:0.16626;stroke-linecap:round;stop-color:#000000"
           d="m 201.67861,98.5252 a 1.0986582,1.0571994 0 0 1 -1.09865,1.057199 1.0986582,1.0571994 0 0 1 -1.09866,-1.057199 1.0986582,1.0571994 0 0 1 1.09866,-1.057199 1.0986582,1.0571994 0 0 1 1.09865,1.057199 z" />
        <path
           id="path20463"
           style="opacity:0.78955;stroke-width:0.16626;stroke-linecap:round;stop-color:#000000"
           d="m 208.47489,95.655655 a 1.0986582,1.0571994 0 0 1 -1.09865,1.057199 1.0986582,1.0571994 0 0 1 -1.09866,-1.057199 1.0986582,1.0571994 0 0 1 1.09866,-1.057199 1.0986582,1.0571994 0 0 1 1.09865,1.057199 z" />
        <path
           id="path20465"
           style="opacity:0.78955;stroke-width:0.16626;stroke-linecap:round;stop-color:#000000"
           d="m 215.27117,98.5252 a 1.0986582,1.0571994 0 0 1 -1.09865,1.057199 1.0986582,1.0571994 0 0 1 -1.09866,-1.057199 1.0986582,1.0571994 0 0 1 1.09866,-1.057199 1.0986582,1.0571994 0 0 1 1.09865,1.057199 z" />
      </g>
    </clipPath>
  </defs>
  <g
     inkscape:label="Layer 1"
     inkscape:groupmode="layer"
     id="layer1"
     transform="translate(-133.52649,-21.907859)">
    <path
       id="path8734"
       style="fill:url(#radialGradient8744);stroke:#008080;stroke-width:0;stroke-linecap:round;stop-color:#000000"
       d="m 238.98219,105.52934 a 31.228172,31.228172 0 0 1 -31.22818,31.22817 31.228172,31.228172 0 0 1 -31.22817,-31.22817 31.228172,31.228172 0 0 1 31.22817,-31.22817 31.228172,31.228172 0 0 1 31.22818,31.22817 z"
       clip-path="url(#clipPath20393)"
       transform="translate(-41.537738,-55.095784)" />
    <text
       xml:space="preserve"
       style="font-style:normal;font-variant:normal;font-weight:bold;font-stretch:normal;font-size:21.1667px;line-height:1.25;font-family:'Foundry Sterling';-inkscape-font-specification:'Foundry Sterling Bold';letter-spacing:1.73831px;fill:#00aeff;fill-opacity:1;stroke-width:0.264583"
       x="160.21718"
       y="55.29641"
       id="text8738"><tspan
         sodipodi:role="line"
         id="tspan8736"
         style="font-style:normal;font-variant:normal;font-weight:bold;font-stretch:normal;font-size:21.1667px;font-family:'Foundry Sterling';-inkscape-font-specification:'Foundry Sterling Bold';fill:#00aeff;fill-opacity:1;stroke-width:0.264583"
         x="160.21718"
         y="55.29641">ed  l</tspan></text>
    <ellipse
       style="opacity:0.78955;fill:url(#radialGradient8742);fill-opacity:1;stroke:none;stroke-width:1.16822;stroke-linecap:round;stroke-dasharray:none;stroke-dashoffset:0;stop-color:#000000"
       id="ellipse8740"
       cx="192.66451"
       cy="49.996986"
       rx="7.719697"
       ry="7.4283876" />
    <ellipse
       style="opacity:1;fill:#00aeff;fill-opacity:1;stroke:none;stroke-width:0.503674;stroke-linecap:round;stroke-dasharray:none;stroke-dashoffset:0;stop-color:#000000"
       id="ellipse11610"
       cx="142.29637"
       cy="50.147114"
       rx="3.2649851"
       ry="3.2648349" />
    <ellipse
       style="opacity:1;fill:#00aeff;fill-opacity:1;stroke:none;stroke-width:0.297503;stroke-linecap:round;stroke-dasharray:none;stroke-dashoffset:0;stop-color:#000000"
       id="ellipse639"
       cx="149.48737"
       cy="50.147114"
       rx="1.9285128"
       ry="1.9284241" />
    <ellipse
       style="opacity:1;fill:#00aeff;fill-opacity:1;stroke:none;stroke-width:0.162826;stroke-linecap:round;stroke-dasharray:none;stroke-dashoffset:0;stop-color:#000000"
       id="ellipse641"
       cx="156.67834"
       cy="50.147114"
       rx="1.0554947"
       ry="1.0554461" />
  </g>
</svg>
